<svg width="67" height="49" viewBox="0 0 67 49" fill="none" xmlns="http://www.w3.org/2000/svg">
<path d="M65 0H50.5H50.4H16C15.3 0 14.7 0.3 14.3 0.9C13.9 1.5 13.9 2.2 14.2 2.8L18.4 12.1C18.7 12.8 19.4 13.3 20.2 13.3H45.9C46.7 13.3 47.3 12.9 47.7 12.2L51.8 4H63.1V38.4H13C11.9 38.4 11 39.3 11 40.4C11 41.5 11.9 42.4 13 42.4H62.9V44.2H4V4H7.1C8.2 4 9.1 3.1 9.1 2C9.1 0.9 8.2 0 7.1 0H2C0.9 0 0 0.9 0 2V46.3C0 47.4 0.9 48.3 2 48.3H64.9C66 48.3 66.9 47.4 66.9 46.3V2C67 0.9 66.1 0 65 0ZM44.6 9.3H21.4L19 4H47.2L44.6 9.3Z" fill="#969696"/>
<path d="M8.7 17.4H41.4C46.2 17.4 50.1 13.5 50.1 8.7C50.1 3.9 46.2 0 41.4 0H8.7C3.9 0 0 3.9 0 8.7C0 13.5 3.9 17.4 8.7 17.4ZM32.4 8.7C32.4 6.8 33.9 5.3 35.8 5.3C37.7 5.3 39.2 6.8 39.2 8.7C39.2 10.6 37.7 12.1 35.8 12.1C33.9 12.1 32.4 10.6 32.4 8.7ZM30.1 13.4H19.9C20.9 12.1 21.6 10.5 21.6 8.7C21.6 6.9 21 5.3 19.9 4H30.1C29.1 5.3 28.4 6.9 28.4 8.7C28.4 10.5 29.1 12.1 30.1 13.4ZM10.7 8.7C10.7 6.8 12.2 5.3 14.1 5.3C16 5.3 17.5 6.8 17.5 8.7C17.5 10.6 16 12.1 14.1 12.1C12.2 12.1 10.7 10.6 10.7 8.7ZM46 8.7C46 11.2 44.1 13.2 41.7 13.3C42.7 12 43.3 10.4 43.3 8.7C43.3 6.9 42.7 5.3 41.7 4.1C44.1 4.2 46 6.2 46 8.7ZM8.3 4.1C7.3 5.4 6.7 7 6.7 8.7C6.7 10.5 7.3 12.1 8.3 13.3C5.9 13.2 4 11.2 4 8.7C4 6.2 5.9 4.2 8.3 4.1Z" transform="translate(8.5 17.9)" fill="#969696"/>
</svg>
