<svg width="90" height="78" viewBox="0 0 90 78" fill="none" xmlns="http://www.w3.org/2000/svg">
<path d="M66.8742 4.06207e-05C62.055 0.000806107 57.3565 1.5068 53.4348 4.30766C49.5131 7.10852 46.5642 11.0644 45 15.6226C43.224 10.4448 39.6689 6.06481 34.967 3.26185C30.2652 0.458889 24.7215 -0.585325 19.3221 0.314963C13.9227 1.21525 9.0177 4.00167 5.47966 8.17854C1.94162 12.3554 -7.11475e-05 17.6519 1.95528e-09 23.1258C1.95528e-09 48.113 45 77.6766 45 77.6766C45 77.6766 90 48.113 90 23.1258C90 16.9925 87.5635 11.1104 83.2266 6.77344C78.8897 2.43651 73.0075 4.85772e-05 66.8742 4.06207e-05V4.06207e-05Z" fill="white"/>
</svg>
