<svg width="64" height="44" viewBox="0 0 64 44" fill="none" xmlns="http://www.w3.org/2000/svg">
<path d="M53.7 25.8H10.4C6.9 25.8 4 22.9 4 19.4C4 16.4 6.1 13.8 9 13.2V20C9 21.1 9.9 22 11 22H37C38.1 22 39 21.1 39 20V17.1H57.3C60.7 17.1 63.4 14.4 63.4 11C63.4 7.6 60.7 4.9 57.3 4.9H39V2C39 0.9 38.1 0 37 0H11C9.9 0 9 0.9 9 2V9.1C3.9 9.8 0 14.1 0 19.4C0 25.1 4.7 29.8 10.4 29.8H53.7C56.4 29.8 58.7 32 58.7 34.8C58.7 37.6 56.5 39.8 53.7 39.8H2C0.9 39.8 0 40.7 0 41.8C0 42.9 0.9 43.8 2 43.8H53.7C58.7 43.8 62.7 39.8 62.7 34.8C62.7 29.8 58.7 25.8 53.7 25.8ZM59.4 11C59.4 12.1 58.5 13.1 57.3 13.1H53.3V8.9H57.3C58.5 9 59.4 9.9 59.4 11ZM13 4H15.9V14.9C15.9 16 16.8 16.9 17.9 16.9C19 16.9 19.9 16 19.9 14.9V4H35.1V6.9V9.9C35.1 11 36 11.9 37.1 11.9C38.2 11.9 39.1 11 39.1 9.9V9H49.4V13.2H37C35.9 13.2 35 14.1 35 15.2V18.1H13V4V4Z" fill="#969696"/>
</svg>
