<svg width="100" height="99" viewBox="0 0 100 99" fill="none" xmlns="http://www.w3.org/2000/svg">
<path d="M49.2 0C22 0 0 22 0 49.2C0 76.4 22 98.4 49.2 98.4C76.4 98.4 98.4 76.4 98.4 49.2C98.4 22 76.4 0 49.2 0ZM17.3 83.3C17.6 72.6 26.2 63.2 39 59.8C42 61.5 45.5 62.4 49.2 62.4C52.9 62.4 56.4 61.4 59.4 59.8C72.2 63.2 80.8 72.6 81.1 83.3C72.8 91.1 61.5 96 49.2 96C36.9 96 25.6 91.1 17.3 83.3ZM49.2 60C38.9 60 30.4 51.6 30.4 41.2C30.4 30.8 38.9 22.5 49.2 22.5C59.5 22.5 68 30.9 68 41.2C68 51.5 59.5 60 49.2 60ZM83.5 81C82.2 70.7 74.1 61.9 62.2 58C67.2 54.1 70.5 48 70.5 41.2C70.5 29.5 61 20 49.3 20C37.6 20 28 29.5 28 41.2C28 48 31.3 54.1 36.3 58C24.5 61.9 16.3 70.7 15 81C7.2 72.6 2.4 61.5 2.4 49.2C2.4 23.4 23.4 2.4 49.2 2.4C75 2.4 96 23.4 96 49.2C96 61.5 91.2 72.6 83.5 81Z" transform="translate(0.799988)" fill="white"/>
</svg>
