<svg width="34" height="67" viewBox="0 0 34 67" fill="none" xmlns="http://www.w3.org/2000/svg">
<path d="M31.4 34.2C30.3 34.2 29.4 35.1 29.4 36.2V55.8C29.4 59.3 26.6 62.1 23.1 62.1C19.9 62.1 17.3 59.8 16.9 56.8H21.6C22.7 56.8 23.5 56 23.6 54.9L25.5 24.9C28.1 22.1 29.6 18.6 29.6 14.8C29.6 6.6 23 0 14.8 0C6.6 0 0 6.6 0 14.8C0 18.6 1.4 22.2 4.1 24.9L6 54.9C6.1 56 6.9 56.8 8 56.8H8.1C9.2 56.7 10 55.8 10 54.7L8.6 33.7H16.8C17.9 33.7 18.8 32.8 18.8 31.7C18.8 30.6 17.9 29.7 16.8 29.7H8.4L8.2 25.9H21.5L19.8 52.9H14.9C13.8 52.9 12.9 53.8 12.9 54.9V55.9C12.9 61.6 17.5 66.2 23.2 66.2C28.9 66.2 33.5 61.6 33.5 55.9V36.2C33.4 35.1 32.5 34.2 31.4 34.2ZM6.6 21.8C4.9 19.8 4 17.4 4 14.8C4 8.9 8.8 4 14.8 4C20.8 4 25.6 8.8 25.6 14.8C25.6 17.4 24.7 19.9 23 21.8H6.6Z" fill="#969696"/>
</svg>
