<svg width="42" height="60" viewBox="0 0 42 60" fill="none" xmlns="http://www.w3.org/2000/svg">
<path d="M12 38.7C18.6 38.7 24 33.3 24 26.7V12C24 5.4 18.6 0 12 0C5.4 0 0 5.4 0 12V26.7C0 33.3 5.4 38.7 12 38.7ZM4 12C4 7.6 7.6 4 12 4C16.4 4 20 7.6 20 12V26.7C20 31.1 16.4 34.7 12 34.7C7.6 34.7 4 31.1 4 26.7V12Z" transform="translate(8.89999)" fill="#969696"/>
<path d="M10.9 20.2C11.6 20.2 12.2 19.9 12.6 19.3C13.2 18.4 12.9 17.1 12 16.5C7 13.4 4 8 4 2C4 0.9 3.1 0 2 0C0.9 0 0 0.9 0 2C0 9.3 3.7 16 9.9 19.9C10.2 20.1 10.5 20.2 10.9 20.2Z" transform="translate(0 23.3)" fill="#969696"/>
<path d="M34.3 2C34.3 0.9 33.4 0 32.3 0C31.2 0 30.3 0.9 30.3 2C30.3 11.4 22.7 19 13.3 19C12.2 19 11.3 19.9 11.3 21V32.1H2C0.9 32.1 0 33 0 34.1C0 35.2 0.9 36.1 2 36.1H24.5C25.6 36.1 26.5 35.2 26.5 34.1C26.5 33 25.6 32.1 24.5 32.1H15.3V23C25.9 21.9 34.3 12.9 34.3 2Z" transform="translate(7.60001 23.3)" fill="#969696"/>
</svg>
