<svg width="59" height="60" viewBox="0 0 59 60" fill="none" xmlns="http://www.w3.org/2000/svg">
<path d="M56.5 10.2341L23.4 16.6341V10.1341L57.2 3.93405C58.3 3.73405 59 2.73405 58.8 1.63405C58.6 0.534053 57.6 -0.165947 56.5 0.0340531L21 6.53405C20.1 6.73405 19.4 7.53405 19.4 8.53405V19.1341V38.9341C17.3 37.1341 14.7 36.0341 11.7 36.0341C5.3 36.0341 0 41.2341 0 47.7341C0 54.2341 5.2 59.4341 11.7 59.4341C18.2 59.4341 23.4 54.0341 23.4 47.6341V20.7341L54.9 14.6341V33.3341C52.8 31.5341 50.2 30.4341 47.2 30.4341C40.8 30.4341 35.5 35.6341 35.5 42.1341C35.5 48.6341 40.7 53.834 47.2 53.834C53.7 53.834 58.9 48.6341 58.9 42.1341V12.2341C58.9 11.6341 58.6 11.0341 58.2 10.7341C57.8 10.4341 57.1 10.1341 56.5 10.2341ZM11.8 55.334C7.6 55.334 4.1 51.9341 4.1 47.6341C4.1 43.3341 7.5 39.9341 11.8 39.9341C16.1 39.9341 19.5 43.3341 19.5 47.6341C19.5 51.9341 16 55.334 11.8 55.334ZM47.2 49.7341C43 49.7341 39.5 46.3341 39.5 42.0341C39.5 37.7341 42.9 34.3341 47.2 34.3341C51.5 34.3341 54.9 37.7341 54.9 42.0341C54.9 46.3341 51.5 49.7341 47.2 49.7341Z" fill="#969696"/>
</svg>
