<svg width="67" height="58" viewBox="0 0 67 58" fill="none" xmlns="http://www.w3.org/2000/svg">
<path d="M65 8.9H59.9C58.8 8.9 57.9 9.8 57.9 10.9C57.9 12 58.8 12.9 59.9 12.9H63V53.2H4V12.9H51C52.1 12.9 53 12 53 10.9V8.8C53 4 49.1 0 44.2 0H21C16.2 0 12.2 3.9 12.2 8.8V8.9H2C0.9 8.9 0 9.8 0 10.9V55.2C0 56.3 0.9 57.2 2 57.2H64.9C66 57.2 66.9 56.3 66.9 55.2V10.9C67 9.8 66.1 8.9 65 8.9ZM16.3 8.8C16.3 6.2 18.4 4 21.1 4H44.4C47 4 49.2 6.1 49.2 8.8V8.9H16.3V8.8Z" fill="#969696"/>
<path d="M15.5 2C15.5 0.9 14.6 0 13.5 0H2C0.9 0 0 0.9 0 2V7.4C0 8.5 0.9 9.4 2 9.4H13.5C14.6 9.4 15.5 8.5 15.5 7.4V2ZM11.5 5.4H4V4H11.5V5.4Z" transform="translate(8.3 20.2)" fill="#969696"/>
<path d="M7.8 4C8.9 4 9.8 3.1 9.8 2C9.8 0.9 8.9 0 7.8 0H2C0.9 0 0 0.9 0 2V7.4C0 8.5 0.9 9.4 2 9.4H13.5C14.6 9.4 15.5 8.5 15.5 7.4V2C15.5 0.9 14.6 0 13.5 0C12.4 0 11.5 0.9 11.5 2V5.4H4V4H7.8Z" transform="translate(8.2 35)" fill="#969696"/>
<path d="M4.2 4.275C-1.4 9.875 -1.4 19.075 4.2 24.775C7 27.575 10.7 28.975 14.5 28.975C18.3 28.975 21.9 27.575 24.8 24.775C30.5 19.075 30.5 9.875 24.8 4.275C19.1 -1.425 9.9 -1.425 4.2 4.275ZM21.9 21.975C19.2 24.675 15.3 25.575 11.8 24.675L22.6 13.875C23.4 13.075 23.4 11.875 22.6 11.075C21.8 10.275 20.6 10.275 19.8 11.075L8.1 22.775C7.8 22.475 7.4 22.175 7.1 21.875C6.5 21.275 6 20.675 5.6 19.975L12.9 12.675C13.7 11.875 13.7 10.675 12.9 9.875C12.1 9.075 10.9 9.075 10.1 9.875L4.1 15.875C3.7 12.775 4.7 9.475 7.1 7.075C9.1 5.075 11.8 3.975 14.5 3.975C17.2 3.975 19.9 4.975 21.9 7.075C26 11.175 26 17.875 21.9 21.975Z" transform="translate(29.9 18.525)" fill="#969696"/>
</svg>
