<svg width="43" height="36" viewBox="0 0 43 36" fill="none" xmlns="http://www.w3.org/2000/svg">
<path d="M13.4221 8.37462C12.4553 9.66519 11.6309 11.0761 10.9748 12.5864C8.9398 10.7169 6.23783 9.6 3.3211 9.6H0V4.8H3.3211C7.10542 4.8 10.6354 6.12287 13.4221 8.37462ZM22.4696 23.4136C24.5046 25.2831 27.2066 26.4 30.1233 26.4H33.4444V31.2H30.1233C26.339 31.2 22.8091 29.8771 20.0223 27.6254C20.9891 26.3348 21.8136 24.9239 22.4696 23.4136ZM33.4444 21.6L43 28.8L33.4444 36V21.6ZM0 26.4H3.3211C8.63574 26.4 13.2373 22.6916 14.3902 17.4794C16.0289 10.071 22.5694 4.8 30.1233 4.8H33.4444V9.6H30.1233C24.8087 9.6 20.2071 13.3084 19.0542 18.5206C17.4155 25.929 10.8751 31.2 3.3211 31.2H0V26.4ZM33.4444 0L43 7.2L33.4444 14.4V0Z" fill="white"/>
</svg>
