<svg width="62" height="62" viewBox="0 0 62 62" fill="none" xmlns="http://www.w3.org/2000/svg">
<path d="M60.862 56.279L48.573 43.99C52.446 39.072 54.395 33.131 54.395 27.186C54.395 20.231 51.735 13.272 46.428 7.966C41.123 2.661 34.168 2.82699e-07 27.215 2.82699e-07C20.251 -0.000999717 13.28 2.651 7.966 7.966C2.656 13.275 0 20.238 0 27.197C0 34.156 2.656 41.119 7.966 46.427C13.272 51.734 20.231 54.394 27.187 54.394C33.131 54.394 39.072 52.445 43.99 48.572L56.28 60.861C56.864 61.445 57.632 61.738 58.397 61.738C59.161 61.738 59.93 61.445 60.514 60.861L60.862 60.513C61.446 59.929 61.739 59.159 61.739 58.396C61.739 57.631 61.446 56.863 60.862 56.279ZM42.856 42.855C38.534 47.177 32.864 49.341 27.198 49.341C21.532 49.341 15.863 47.177 11.54 42.855C7.217 38.533 5.054 32.863 5.054 27.197C5.054 21.531 7.217 15.862 11.54 11.539C15.863 7.216 21.533 5.053 27.198 5.053C32.864 5.053 38.534 7.216 42.856 11.539C47.178 15.862 49.342 21.532 49.342 27.197C49.343 32.863 47.179 38.533 42.856 42.855Z" transform="translate(0.130005)" fill="#676A6F"/>
</svg>
