<svg width="49" height="64" viewBox="0 0 49 64" fill="none" xmlns="http://www.w3.org/2000/svg">
<path d="M46.4 0H2C0.9 0 0 0.9 0 2V56.3C0 57.4 0.9 58.3 2 58.3H4.2V61.6C4.2 62.7 5.1 63.6 6.2 63.6H15.3C16.4 63.6 17.3 62.7 17.3 61.6V58.3H30.9V61.6C30.9 62.7 31.8 63.6 32.9 63.6H42.2C43.3 63.6 44.2 62.7 44.2 61.6V58.3H46.5C47.6 58.3 48.5 57.4 48.5 56.3V2C48.4 0.9 47.5 0 46.4 0ZM13.4 59.6H8.2V58.3H13.3V59.6H13.4ZM40.2 59.6H35.1V58.3H40.2V59.6ZM44.4 54.3H42.2H33.1H15.4H6.2H3.9V4H44.3V54.3H44.4Z" fill="#969696"/>
<path d="M7.1 14.2C11 14.2 14.2 11 14.2 7.1C14.2 6 13.3 5.1 12.2 5.1C11.1 5.1 10.2 6 10.2 7.1C10.2 8.8 8.8 10.2 7.1 10.2C5.4 10.2 4 8.8 4 7.1C4 5.4 5.4 4 7.1 4C8.2 4 9.1 3.1 9.1 2C9.1 0.9 8.2 0 7.1 0C3.2 0 0 3.2 0 7.1C0 11 3.2 14.2 7.1 14.2Z" transform="translate(17.1 8.2)" fill="#969696"/>
<path d="M2 13C3.1 13 4 12.1 4 11C4 7.2 7.1 4 11 4C14.9 4 18 7.1 18 11C18 14.9 14.9 18 11 18C9.9 18 9 18.9 9 20C9 21.1 9.9 22 11 22C17.1 22 22 17.1 22 11C22 4.9 17.1 0 11 0C4.9 0 0 4.9 0 11C0 12.1 0.9 13 2 13Z" transform="translate(13.2 27.3)" fill="#969696"/>
</svg>
