<svg width="59" height="51" viewBox="0 0 59 51" fill="none" xmlns="http://www.w3.org/2000/svg">
<path d="M37.8 0.331371C37.2 -0.0686287 36.5 -0.0686294 35.9 0.131371L12.4 10.0314H2C0.9 10.0314 0 10.9314 0 12.0314V38.7314C0 39.8314 0.9 40.7314 2 40.7314H12.4L35.9 50.6314C36.1 50.7314 36.4 50.8314 36.7 50.8314C37.1 50.8314 37.5 50.7314 37.8 50.5314C38.4 50.1314 38.7 49.5314 38.7 48.8314V2.03137C38.7 1.33137 38.3 0.731371 37.8 0.331371ZM34.7 45.6314L14.8 37.3314V20.0314C14.8 18.9314 13.9 18.0314 12.8 18.0314C11.7 18.0314 10.8 18.9314 10.8 20.0314V36.7314H4V14.0314H12.8C13.1 14.0314 13.3 13.9314 13.6 13.8314L28 7.73137V37.3314C28 38.4314 28.9 39.3314 30 39.3314C31.1 39.3314 32 38.4314 32 37.3314V6.13137L34.6 5.03137V45.6314H34.7Z" fill="#969696"/>
<path d="M3.4 0.6C2.6 -0.2 1.4 -0.2 0.6 0.6C-0.2 1.4 -0.2 2.6 0.6 3.4C2.8 5.7 4 8.6 4 11.7C4 14.8 2.8 17.7 0.6 20C-0.2 20.8 -0.2 22 0.6 22.8C1 23.2 1.5 23.4 2 23.4C2.5 23.4 3 23.2 3.4 22.8C6.4 19.8 8 15.9 8 11.7C8 7.5 6.3 3.6 3.4 0.6Z" transform="translate(43.2 13.6314)" fill="#969696"/>
<path d="M3.4 0.6C2.6 -0.2 1.4 -0.2 0.6 0.6C-0.2 1.4 -0.2 2.6 0.6 3.4C9.4 12.2 9.4 26.4 0.6 35.2C-0.2 36 -0.2 37.2 0.6 38C1 38.4 1.5 38.6 2 38.6C2.5 38.6 3 38.4 3.4 38C13.7 27.7 13.7 10.9 3.4 0.6Z" transform="translate(47.3 6.03137)" fill="#969696"/>
</svg>
