<!-- Generated by IcoMoon.io -->
<svg version="1.1" xmlns="http://www.w3.org/2000/svg" width="44" height="32" viewBox="0 0 44 32">
<title>casette</title>
<path fill="#969696" d="M42.449 0h-32c-0.457 0-0.849 0.196-1.11 0.588s-0.261 0.849-0.065 1.241l2.743 6.073c0.196 0.457 0.653 0.784 1.175 0.784h16.784c0.522 0 0.914-0.261 1.175-0.718l2.678-5.355h7.38v22.465h-32.718c-0.718 0-1.306 0.588-1.306 1.306s0.588 1.306 1.306 1.306h32.588v1.175h-38.465v-26.253h2.024c0.718 0 1.306-0.588 1.306-1.306s-0.588-1.306-1.306-1.306h-3.331c-0.718 0-1.306 0.588-1.306 1.306v28.931c0 0.718 0.588 1.306 1.306 1.306h41.078c0.718 0 1.306-0.588 1.306-1.306v-28.931c0.065-0.718-0.522-1.306-1.241-1.306zM29.127 6.073h-15.151l-1.567-3.461h18.416l-1.698 3.461z"></path>
<path fill="#969696" d="M11.233 23.053h21.355c3.135 0 5.682-2.547 5.682-5.682s-2.547-5.682-5.682-5.682h-21.355c-3.135 0-5.682 2.547-5.682 5.682s2.547 5.682 5.682 5.682zM26.71 17.371c0-1.241 0.98-2.22 2.22-2.22s2.22 0.98 2.22 2.22c0 1.241-0.98 2.22-2.22 2.22s-2.22-0.98-2.22-2.22zM25.208 20.441h-6.661c0.653-0.849 1.11-1.894 1.11-3.069s-0.392-2.22-1.11-3.069h6.661c-0.653 0.849-1.11 1.894-1.11 3.069s0.457 2.22 1.11 3.069zM12.539 17.371c0-1.241 0.98-2.22 2.22-2.22s2.22 0.98 2.22 2.22c0 1.241-0.98 2.22-2.22 2.22s-2.22-0.98-2.22-2.22zM35.592 17.371c0 1.633-1.241 2.939-2.808 3.004 0.653-0.849 1.045-1.894 1.045-3.004 0-1.175-0.392-2.22-1.045-3.004 1.567 0.065 2.808 1.371 2.808 3.004zM10.971 14.367c-0.653 0.849-1.045 1.894-1.045 3.004 0 1.175 0.392 2.22 1.045 3.004-1.567-0.065-2.808-1.371-2.808-3.004s1.241-2.939 2.808-3.004z"></path>
</svg>
