<!-- Generated by IcoMoon.io -->
<svg version="1.1" xmlns="http://www.w3.org/2000/svg" width="128" height="32" viewBox="0 0 128 32">
<title>dots</title>
<path fill="#ababab" d="M17.067 31.467c8.689 0 15.733-7.044 15.733-15.733s-7.044-15.733-15.733-15.733c-8.689 0-15.733 7.044-15.733 15.733s7.044 15.733 15.733 15.733z"></path>
<path fill="#ababab" d="M64 31.467c8.689 0 15.733-7.044 15.733-15.733s-7.044-15.733-15.733-15.733c-8.689 0-15.733 7.044-15.733 15.733s7.044 15.733 15.733 15.733z"></path>
<path fill="#ababab" d="M110.933 31.467c8.689 0 15.733-7.044 15.733-15.733s-7.044-15.733-15.733-15.733c-8.689 0-15.733 7.044-15.733 15.733s7.044 15.733 15.733 15.733z"></path>
</svg>
