<!-- Generated by IcoMoon.io -->
<svg version="1.1" xmlns="http://www.w3.org/2000/svg" width="33" height="32" viewBox="0 0 33 32">
<title>headphones</title>
<path fill="#969696" d="M32.107 18.987c0-3.040-1.76-5.653-4.267-6.933v-0.267c0-6.507-5.28-11.787-11.787-11.787s-11.787 5.28-11.787 11.787v0.213c-2.507 1.28-4.267 3.947-4.267 6.933 0 4.32 3.52 7.787 7.787 7.787h1.813c0.587 0 1.067-0.48 1.067-1.067v-13.44c0-0.587-0.48-1.067-1.067-1.067h-1.813c-0.48 0-0.96 0.053-1.387 0.107 0.213-5.12 4.48-9.227 9.653-9.227s9.44 4.107 9.653 9.28c-0.427-0.107-0.907-0.107-1.387-0.107h-1.813c-0.587 0-1.067 0.48-1.067 1.067v13.493c0 0.587 0.48 1.067 1.067 1.067h1.813c0.48 0 0.96-0.053 1.387-0.16v0.907h-6.4v-0.8c0-0.587-0.48-1.067-1.067-1.067h-3.733c-0.587 0-1.067 0.48-1.067 1.067v3.733c0 0.587 0.48 1.067 1.067 1.067h3.733c0.587 0 1.067-0.48 1.067-1.067v-0.8h7.467c0.587 0 1.067-0.48 1.067-1.067v-2.72c2.56-1.28 4.267-3.893 4.267-6.933zM8.533 13.28v11.36h-0.747c-3.147 0-5.653-2.56-5.653-5.653 0-1.813 0.853-3.413 2.133-4.427v6.347c0 0.587 0.48 1.067 1.067 1.067s1.067-0.48 1.067-1.067v-7.413c0.427-0.107 0.907-0.16 1.387-0.16h0.747v-0.053zM17.227 29.44h-1.6v-1.6h1.6v1.6zM27.84 23.413v-5.493c0-0.587-0.48-1.067-1.067-1.067s-1.067 0.48-1.067 1.067v6.56c-0.427 0.107-0.907 0.16-1.387 0.16h-0.747v-11.36h0.747c3.147 0 5.653 2.56 5.653 5.653 0 1.813-0.8 3.413-2.133 4.48z"></path>
</svg>
