<!-- Generated by IcoMoon.io -->
<svg version="1.1" xmlns="http://www.w3.org/2000/svg" width="47" height="32" viewBox="0 0 47 32">
<title>jack</title>
<path fill="#969696" d="M39.055 18.764h-31.491c-2.545 0-4.655-2.109-4.655-4.655 0-2.182 1.527-4.073 3.636-4.509v4.945c0 0.8 0.655 1.455 1.455 1.455h18.909c0.8 0 1.455-0.655 1.455-1.455v-2.109h13.309c2.473 0 4.436-1.964 4.436-4.436s-1.964-4.436-4.436-4.436h-13.309v-2.109c0-0.8-0.655-1.455-1.455-1.455h-18.909c-0.8 0-1.455 0.655-1.455 1.455v5.164c-3.709 0.509-6.545 3.636-6.545 7.491 0 4.145 3.418 7.564 7.564 7.564h31.491c1.964 0 3.636 1.6 3.636 3.636s-1.6 3.636-3.636 3.636h-37.6c-0.8 0-1.455 0.655-1.455 1.455s0.655 1.455 1.455 1.455h37.6c3.636 0 6.545-2.909 6.545-6.545s-2.909-6.545-6.545-6.545zM43.2 8c0 0.8-0.655 1.527-1.527 1.527h-2.909v-3.055h2.909c0.873 0.073 1.527 0.727 1.527 1.527zM9.455 2.909h2.109v7.927c0 0.8 0.655 1.455 1.455 1.455s1.455-0.655 1.455-1.455v-7.927h11.055v4.291c0 0.8 0.655 1.455 1.455 1.455s1.455-0.655 1.455-1.455v-0.655h7.491v3.055h-9.018c-0.8 0-1.455 0.655-1.455 1.455v2.109h-16v-10.255z"></path>
</svg>
