<!-- Generated by IcoMoon.io -->
<svg version="1.1" xmlns="http://www.w3.org/2000/svg" width="32" height="32" viewBox="0 0 32 32">
<title>login</title>
<path fill="#fff" d="M16.162 0c-8.792 0-15.903 7.111-15.903 15.903s7.111 15.903 15.903 15.903c8.792 0 15.903-7.111 15.903-15.903s-7.111-15.903-15.903-15.903zM5.851 26.925c0.097-3.459 2.877-6.497 7.014-7.596 0.97 0.549 2.101 0.84 3.297 0.84s2.327-0.323 3.297-0.84c4.137 1.099 6.917 4.137 7.014 7.596-2.683 2.521-6.335 4.105-10.311 4.105s-7.628-1.584-10.311-4.105zM16.162 19.394c-3.329 0-6.077-2.715-6.077-6.077s2.747-6.044 6.077-6.044c3.329 0 6.077 2.715 6.077 6.044s-2.747 6.077-6.077 6.077zM27.248 26.182c-0.42-3.329-3.038-6.174-6.885-7.434 1.616-1.261 2.683-3.232 2.683-5.43 0-3.782-3.071-6.853-6.853-6.853s-6.885 3.071-6.885 6.853c0 2.198 1.067 4.17 2.683 5.43-3.814 1.261-6.465 4.105-6.885 7.434-2.521-2.715-4.073-6.303-4.073-10.279 0-8.339 6.788-15.127 15.127-15.127s15.127 6.788 15.127 15.127c0 3.976-1.552 7.564-4.040 10.279z"></path>
</svg>
