<!-- Generated by IcoMoon.io -->
<svg version="1.1" xmlns="http://www.w3.org/2000/svg" width="16" height="32" viewBox="0 0 16 32">
<title>mic</title>
<path fill="#969696" d="M14.997 16.334c-0.525 0-0.955 0.43-0.955 0.955v9.361c0 1.672-1.337 3.009-3.009 3.009-1.528 0-2.77-1.099-2.961-2.531h2.245c0.525 0 0.907-0.382 0.955-0.907l0.907-14.328c1.242-1.337 1.958-3.009 1.958-4.824 0-3.916-3.152-7.069-7.069-7.069s-7.069 3.152-7.069 7.069c0 1.815 0.669 3.534 1.958 4.824l0.907 14.328c0.048 0.525 0.43 0.907 0.955 0.907h0.048c0.525-0.048 0.907-0.478 0.907-1.003l-0.669-10.030h3.916c0.525 0 0.955-0.43 0.955-0.955s-0.43-0.955-0.955-0.955h-4.012l-0.096-1.815h6.352l-0.812 12.896h-2.34c-0.525 0-0.955 0.43-0.955 0.955v0.478c0 2.722 2.197 4.919 4.919 4.919s4.919-2.197 4.919-4.919v-9.409c-0.048-0.525-0.478-0.955-1.003-0.955zM3.152 10.412c-0.812-0.955-1.242-2.101-1.242-3.343 0-2.818 2.293-5.158 5.158-5.158s5.158 2.293 5.158 5.158c0 1.242-0.43 2.436-1.242 3.343h-7.833z"></path>
</svg>
