<!-- Generated by IcoMoon.io -->
<svg version="1.1" xmlns="http://www.w3.org/2000/svg" width="22" height="32" viewBox="0 0 22 32">
<title>mico</title>
<path fill="#969696" d="M11.147 20.64c3.52 0 6.4-2.88 6.4-6.4v-7.84c0-3.52-2.88-6.4-6.4-6.4s-6.4 2.88-6.4 6.4v7.84c0 3.52 2.88 6.4 6.4 6.4zM6.88 6.4c0-2.347 1.92-4.267 4.267-4.267s4.267 1.92 4.267 4.267v7.84c0 2.347-1.92 4.267-4.267 4.267s-4.267-1.92-4.267-4.267v-7.84z"></path>
<path fill="#969696" d="M5.813 23.2c0.373 0 0.693-0.16 0.907-0.48 0.32-0.48 0.16-1.173-0.32-1.493-2.667-1.653-4.267-4.533-4.267-7.733 0-0.587-0.48-1.067-1.067-1.067s-1.067 0.48-1.067 1.067c0 3.893 1.973 7.467 5.28 9.547 0.16 0.107 0.32 0.16 0.533 0.16z"></path>
<path fill="#969696" d="M22.347 13.493c0-0.587-0.48-1.067-1.067-1.067s-1.067 0.48-1.067 1.067c0 5.013-4.053 9.067-9.067 9.067-0.587 0-1.067 0.48-1.067 1.067v5.92h-4.96c-0.587 0-1.067 0.48-1.067 1.067s0.48 1.067 1.067 1.067h12c0.587 0 1.067-0.48 1.067-1.067s-0.48-1.067-1.067-1.067h-4.907v-4.853c5.653-0.587 10.133-5.387 10.133-11.2z"></path>
</svg>
