<!-- Generated by IcoMoon.io -->
<svg version="1.1" xmlns="http://www.w3.org/2000/svg" width="31" height="32" viewBox="0 0 31 32">
<title>music</title>
<path fill="#969696" d="M30.133 5.458l-17.653 3.413v-3.467l18.027-3.307c0.587-0.107 0.96-0.64 0.853-1.227s-0.64-0.96-1.227-0.853l-18.933 3.467c-0.48 0.107-0.853 0.533-0.853 1.067v16.213c-1.12-0.96-2.507-1.547-4.107-1.547-3.413 0-6.24 2.773-6.24 6.24s2.773 6.24 6.24 6.24c3.467 0 6.24-2.88 6.24-6.293v-14.347l16.8-3.253v9.973c-1.12-0.96-2.507-1.547-4.107-1.547-3.413 0-6.24 2.773-6.24 6.24s2.773 6.24 6.24 6.24c3.467 0 6.24-2.773 6.24-6.24v-15.947c0-0.32-0.16-0.64-0.373-0.8s-0.587-0.32-0.907-0.267zM6.293 29.511c-2.24 0-4.107-1.813-4.107-4.107s1.813-4.107 4.107-4.107c2.293 0 4.107 1.813 4.107 4.107s-1.867 4.107-4.107 4.107zM25.173 26.525c-2.24 0-4.107-1.813-4.107-4.107s1.813-4.107 4.107-4.107c2.293 0 4.107 1.813 4.107 4.107s-1.813 4.107-4.107 4.107z"></path>
</svg>
