<!-- Generated by IcoMoon.io -->
<svg version="1.1" xmlns="http://www.w3.org/2000/svg" width="37" height="32" viewBox="0 0 37 32">
<title>radio</title>
<path fill="#969696" d="M35.862 4.91h-2.814c-0.607 0-1.103 0.497-1.103 1.103s0.497 1.103 1.103 1.103h1.71v22.234h-32.552v-22.234h25.931c0.607 0 1.103-0.497 1.103-1.103v-1.159c0-2.648-2.152-4.855-4.855-4.855h-12.8c-2.648 0-4.855 2.152-4.855 4.855v0.055h-5.628c-0.607 0-1.103 0.497-1.103 1.103v24.441c0 0.607 0.497 1.103 1.103 1.103h34.703c0.607 0 1.103-0.497 1.103-1.103v-24.441c0.055-0.607-0.441-1.103-1.048-1.103zM8.993 4.855c0-1.434 1.159-2.648 2.648-2.648h12.855c1.434 0 2.648 1.159 2.648 2.648v0.055h-18.152v-0.055z"></path>
<path fill="#969696" d="M13.131 12.248c0-0.607-0.497-1.103-1.103-1.103h-6.345c-0.607 0-1.103 0.497-1.103 1.103v2.979c0 0.607 0.497 1.103 1.103 1.103h6.345c0.607 0 1.103-0.497 1.103-1.103v-2.979zM10.924 14.124h-4.138v-0.772h4.138v0.772z"></path>
<path fill="#969696" d="M8.828 21.517c0.607 0 1.103-0.497 1.103-1.103s-0.497-1.103-1.103-1.103h-3.2c-0.607 0-1.103 0.497-1.103 1.103v2.979c0 0.607 0.497 1.103 1.103 1.103h6.345c0.607 0 1.103-0.497 1.103-1.103v-2.979c0-0.607-0.497-1.103-1.103-1.103s-1.103 0.497-1.103 1.103v1.876h-4.138v-0.772h2.097z"></path>
<path fill="#969696" d="M18.814 12.579c-3.090 3.090-3.090 8.166 0 11.31 1.545 1.545 3.586 2.317 5.683 2.317s4.083-0.772 5.683-2.317c3.145-3.145 3.145-8.221 0-11.31-3.145-3.145-8.221-3.145-11.366 0zM28.579 22.345c-1.49 1.49-3.641 1.986-5.572 1.49l5.959-5.959c0.441-0.441 0.441-1.103 0-1.545s-1.103-0.441-1.545 0l-6.455 6.455c-0.166-0.166-0.386-0.331-0.552-0.497-0.331-0.331-0.607-0.662-0.828-1.048l4.028-4.028c0.441-0.441 0.441-1.103 0-1.545s-1.103-0.441-1.545 0l-3.31 3.31c-0.221-1.71 0.331-3.531 1.655-4.855 1.103-1.103 2.593-1.71 4.083-1.71s2.979 0.552 4.083 1.71c2.262 2.262 2.262 5.959 0 8.221z"></path>
</svg>
