<!-- Generated by IcoMoon.io -->
<svg version="1.1" xmlns="http://www.w3.org/2000/svg" width="38" height="32" viewBox="0 0 38 32">
<title>rotate</title>
<path fill="#fff" d="M11.931 7.444c-0.859 1.147-1.592 2.401-2.175 3.744-1.809-1.662-4.211-2.655-6.803-2.655h-2.952v-4.267h2.952c3.364 0 6.502 1.176 8.979 3.177zM19.973 20.812c1.809 1.662 4.211 2.655 6.803 2.655h2.952v4.267h-2.952c-3.364 0-6.502-1.176-8.979-3.177 0.859-1.147 1.592-2.401 2.175-3.744zM29.728 19.2l8.494 6.4-8.494 6.4v-12.8zM0 23.467h2.952c4.724 0 8.814-3.296 9.839-7.929 1.457-6.585 7.27-11.271 13.985-11.271h2.952v4.267h-2.952c-4.724 0-8.814 3.296-9.839 7.929-1.457 6.585-7.27 11.271-13.985 11.271h-2.952v-4.267zM29.728 0l8.494 6.4-8.494 6.4v-12.8z"></path>
</svg>
