<!-- Generated by IcoMoon.io -->
<svg version="1.1" xmlns="http://www.w3.org/2000/svg" width="32" height="32" viewBox="0 0 32 32">
<title>search</title>
<path fill="#676a6f" d="M31.48 29.047l-6.343-6.343c1.999-2.538 3.005-5.605 3.005-8.673 0-3.59-1.373-7.181-4.112-9.92-2.738-2.738-6.328-4.111-9.916-4.111-3.594-0.001-7.192 1.368-9.935 4.111-2.741 2.74-4.111 6.334-4.111 9.926s1.371 7.186 4.111 9.925c2.739 2.739 6.33 4.112 9.921 4.112 3.068 0 6.134-1.006 8.673-3.005l6.343 6.343c0.301 0.301 0.698 0.453 1.093 0.453s0.791-0.151 1.093-0.453l0.18-0.18c0.301-0.301 0.453-0.699 0.453-1.093 0-0.395-0.151-0.791-0.453-1.093zM22.186 22.119c-2.231 2.231-5.157 3.348-8.082 3.348s-5.85-1.117-8.082-3.348c-2.231-2.231-3.348-5.157-3.348-8.082s1.116-5.85 3.348-8.082c2.231-2.231 5.158-3.348 8.082-3.348s5.851 1.116 8.082 3.348 3.348 5.158 3.348 8.082c0.001 2.924-1.116 5.851-3.348 8.082z"></path>
</svg>
