<!-- Generated by IcoMoon.io -->
<svg version="1.1" xmlns="http://www.w3.org/2000/svg" width="25" height="32" viewBox="0 0 25 32">
<title>speaker</title>
<path fill="#969696" d="M23.2 0h-22.2c-0.55 0-1 0.45-1 1v27.15c0 0.55 0.45 1 1 1h1.1v1.65c0 0.55 0.45 1 1 1h4.55c0.55 0 1-0.45 1-1v-1.65h6.8v1.65c0 0.55 0.45 1 1 1h4.65c0.55 0 1-0.45 1-1v-1.65h1.15c0.55 0 1-0.45 1-1v-27.15c-0.050-0.55-0.5-1-1.050-1zM6.7 29.8h-2.6v-0.65h2.55v0.65h0.050zM20.1 29.8h-2.55v-0.65h2.55v0.65zM22.2 27.15h-20.25v-25.15h20.2v25.15h0.050z"></path>
<path fill="#969696" d="M12.1 11.2c1.95 0 3.55-1.6 3.55-3.55 0-0.55-0.45-1-1-1s-1 0.45-1 1c0 0.85-0.7 1.55-1.55 1.55s-1.55-0.7-1.55-1.55c0-0.85 0.7-1.55 1.55-1.55 0.55 0 1-0.45 1-1s-0.45-1-1-1c-1.95 0-3.55 1.6-3.55 3.55s1.6 3.55 3.55 3.55z"></path>
<path fill="#969696" d="M7.6 20.15c0.55 0 1-0.45 1-1 0-1.9 1.55-3.5 3.5-3.5s3.5 1.55 3.5 3.5c0 1.95-1.55 3.5-3.5 3.5-0.55 0-1 0.45-1 1s0.45 1 1 1c3.050 0 5.5-2.45 5.5-5.5s-2.45-5.5-5.5-5.5c-3.050 0-5.5 2.45-5.5 5.5 0 0.55 0.45 1 1 1z"></path>
</svg>
