<!-- Generated by IcoMoon.io -->
<svg version="1.1" xmlns="http://www.w3.org/2000/svg" width="37" height="32" viewBox="0 0 37 32">
<title>volume</title>
<path fill="#969696" d="M23.718 0.208c-0.376-0.251-0.816-0.251-1.192-0.126l-14.745 6.212h-6.526c-0.69 0-1.255 0.565-1.255 1.255v16.753c0 0.69 0.565 1.255 1.255 1.255h6.526l14.745 6.212c0.125 0.063 0.314 0.125 0.502 0.125 0.251 0 0.502-0.063 0.69-0.188 0.376-0.251 0.565-0.627 0.565-1.067v-29.365c0-0.439-0.251-0.816-0.565-1.067zM21.773 28.631l-12.486-5.208v-10.855c0-0.69-0.565-1.255-1.255-1.255s-1.255 0.565-1.255 1.255v10.478h-4.267v-14.243h5.522c0.188 0 0.314-0.063 0.502-0.126l9.035-3.827v18.573c0 0.69 0.565 1.255 1.255 1.255s1.255-0.565 1.255-1.255v-19.576l1.631-0.69v25.475h0.063z"></path>
<path fill="#969696" d="M29.239 8.93c-0.502-0.502-1.255-0.502-1.757 0s-0.502 1.255 0 1.757c1.38 1.443 2.133 3.263 2.133 5.208s-0.753 3.765-2.133 5.208c-0.502 0.502-0.502 1.255 0 1.757 0.251 0.251 0.565 0.376 0.878 0.376s0.627-0.125 0.878-0.376c1.882-1.882 2.886-4.329 2.886-6.965s-1.067-5.082-2.886-6.965z"></path>
<path fill="#969696" d="M31.812 4.161c-0.502-0.502-1.255-0.502-1.757 0s-0.502 1.255 0 1.757c5.522 5.522 5.522 14.431 0 19.953-0.502 0.502-0.502 1.255 0 1.757 0.251 0.251 0.565 0.376 0.878 0.376s0.627-0.125 0.878-0.376c6.463-6.463 6.463-17.004 0-23.467z"></path>
</svg>
