<svg width="1118" height="335" viewBox="0 0 1118 335" fill="none" xmlns="http://www.w3.org/2000/svg">
<path d="M0 167C0 259 76 335 168 335C260 335 336 259 336 167C336 75 260 0 168 0C76 0 0 75 0 167ZM230 245C191 221 141 215 83 228C69 230 67 210 79 208C143 193 197 200 241 227C252 234 241 251 230 245ZM247 200C202 172 133 164 80 180C63 185 57 159 73 155C134 137 209 146 261 178C275 187 261 209 247 200ZM72 129C55 135 44 106 63 99C122 81 222 84 284 121C301 130 285 158 267 148C213 116 123 113 72 129ZM451 220C434 220 418 214 404 200C403 200 403 201 403 201L387 220C386 221 386 222 387 223C405 239 427 247 451 247C485 247 506 228 506 200C506 176 491 163 456 154C427 147 422 142 422 132C422 122 432 116 445 116C458 116 470 121 484 131C484 131 485 132 486 132C487 132 487 131 487 131L501 111C502 110 502 110 501 109C485 96 466 89 445 89C414 89 392 108 392 135C392 164 412 173 444 181C472 187 476 193 476 203C476 214 466 220 451 220ZM546 143V130C546 129 545 128 544 128H518C517 128 516 129 516 130V277C516 278 517 279 518 279H544C545 279 546 278 546 277V231C556 242 567 247 582 247C609 247 636 226 636 186C636 146 609 126 582 126C567 126 556 131 546 143ZM576 221C558 221 545 206 545 186C545 166 558 152 576 152C594 152 606 166 606 186C606 206 594 221 576 221ZM644 187C644 221 671 247 706 247C741 247 768 220 768 186C768 152 742 126 707 126C672 126 644 153 644 187ZM674 186C674 166 687 152 706 152C725 152 739 167 739 187C739 207 726 221 707 221C688 221 674 206 674 186ZM814 128V99C814 98 814 97 813 97H787C786 97 785 98 785 99V128H772C771 128 770 129 770 130V152C770 153 771 154 772 154H785V212C785 235 796 247 819 247C828 247 837 245 844 241C845 241 845 240 845 239V218C845 217 845 216 844 216H842C837 219 831 220 826 220C818 220 814 216 814 208V154H844C845 154 846 153 846 152V130C846 129 845 128 844 128H814ZM943 125C943 114 947 110 956 110C961 110 966 110 971 112H972C972 112 973 111 973 110V89C973 88 973 87 972 87C967 85 960 84 950 84C926 84 914 98 914 123V128H901C900 128 899 129 899 130V152C899 153 900 154 901 154H914V243C914 244 915 245 916 245H942C943 245 943 244 943 243V154H968L1005 243C1001 252 997 254 991 254C986 254 981 253 976 250H975L974 251L965 270C965 271 965 273 966 273C975 278 983 280 993 280C1012 280 1023 271 1032 247L1077 131V129C1077 128 1076 128 1075 128H1048C1047 128 1047 129 1047 130L1019 208L989 130C989 129 988 128 987 128H943V125ZM860 128C859 128 858 129 858 130V243C858 244 859 245 860 245H886C887 245 887 244 887 243V130C887 129 887 128 886 128H860ZM854 95C854 105 863 114 873 114C883 114 891 105 891 95C891 85 883 77 873 77C863 77 854 85 854 95ZM1099 164C1109 164 1118 156 1118 146C1118 136 1109 128 1099 128C1089 128 1081 136 1081 146C1081 156 1089 164 1099 164ZM1099 130C1108 130 1116 137 1116 146C1116 155 1108 162 1099 162C1090 162 1083 155 1083 146C1083 137 1090 130 1099 130ZM1103 148C1106 147 1108 145 1108 142C1108 138 1104 136 1100 136H1092V155H1096V149H1100L1104 155H1109L1103 148ZM1100 139C1102 139 1104 140 1104 142C1104 144 1102 145 1100 145H1096V139H1100Z" fill="white"/>
</svg>
